<svg xmlns="http://www.w3.org/2000/svg" viewBox="0 0 512 512"><path d="M443.686 80.314C399.632 36.262 341.061 12 278.76 12c-5.523 0-10 4.478-10 10v223.24c0 2.652 1.054 5.195 2.929 7.071l157.854 157.854c1.953 1.952 4.512 2.929 7.071 2.929s5.119-.977 7.071-2.929C487.739 366.111 512 307.54 512 245.24c0-62.301-24.261-120.872-68.314-164.926zM288.76 32.231a212.12 212.12 0 0151.963 8.957L288.76 93.151v-60.92zm0 89.167c.134-.12.272-.234.401-.363l72.321-72.321a212.873 212.873 0 0129.79 15.458L288.76 166.685v-45.287zm0 119.7V194.97L407.99 75.74a214.979 214.979 0 0123.944 21.304l-92.645 92.646c-3.905 3.905-3.905 10.237 0 14.143 1.953 1.952 4.512 2.929 7.071 2.929s5.119-.977 7.071-2.929l91.754-91.755a214.077 214.077 0 0118.374 26.875L325.087 277.425l-36.327-36.327zm50.47 50.469l133.923-133.924a211.518 211.518 0 0111.853 33.396L361.854 314.191l-22.624-22.624zm97.223 97.223l-23.702-23.702 74.419-74.419c-7.864 36.425-25.172 70.122-50.717 98.121zm54.823-130.514l-92.668 92.669-22.611-22.611 113.791-113.791A214.065 214.065 0 01492 245.24c0 4.265-.138 8.508-.385 12.73-.113.103-.23.198-.339.306z"/><path d="M398.166 417.543L243.24 262.617V43.521c0-5.522-4.477-10-10-10-62.301 0-120.872 24.261-164.925 68.314C24.261 145.888 0 204.459 0 266.76s24.261 120.872 68.314 164.926C112.368 475.738 170.939 500 233.24 500c62.3 0 120.872-24.262 164.926-68.314 3.905-3.905 3.905-10.237 0-14.143zM233.24 480C115.659 480 20 384.341 20 266.76c0-114.23 90.283-207.769 203.24-213.008V266.76c0 .777.101 1.541.276 2.285h-.011l48.692 207.421A215.681 215.681 0 01233.24 480zm58.437-8.064l-40.676-173.273 125.79 125.789c-24.636 22.477-53.68 38.582-85.114 47.484z"/><path d="M326.84 216.281c-1.86-1.86-4.44-2.931-7.07-2.931s-5.21 1.07-7.07 2.931c-1.86 1.859-2.93 4.439-2.93 7.069s1.07 5.21 2.93 7.07 4.44 2.93 7.07 2.93 5.21-1.07 7.07-2.93 2.93-4.44 2.93-7.07-1.07-5.21-2.93-7.069zM57.546 256.438H57.5c-5.501 0-9.974 4.447-9.999 9.954v.368c0 5.522 4.477 10 10 10s10-4.478 10-10v-.276c.024-5.524-4.432-10.021-9.955-10.046zm97.512-147.431c-2.734-4.8-8.84-6.474-13.639-3.738-43.929 25.027-76.137 67.396-88.366 116.242-1.341 5.357 1.915 10.788 7.272 12.129.815.204 1.632.302 2.436.302 4.479 0 8.556-3.031 9.693-7.573 10.91-43.577 39.655-81.383 78.865-103.723 4.799-2.733 6.473-8.84 3.739-13.639z"/></svg>