<svg viewBox="-46 0 512 512" xmlns="http://www.w3.org/2000/svg"><path d="M350 366c-5.52 0-10 4.48-10 10s4.48 10 10 10 10-4.48 10-10-4.48-10-10-10zM49.559 206.648c5.52 0 10-4.476 10-10 0-5.52-4.48-10-10-10s-10 4.48-10 10c0 5.524 4.48 10 10 10zm.441 20c-5.523 0-10 4.48-10 10v60c0 5.524 4.477 10 10 10s10-4.476 10-10v-60c0-5.52-4.477-10-10-10zM150 0c-5.523 0-10 4.477-10 10v492c0 5.523 4.477 10 10 10h100c5.523 0 10-4.477 10-10V10c0-5.523-4.477-10-10-10zm90 66h-30c-5.523 0-10 4.477-10 10s4.477 10 10 10h30v40h-30c-5.523 0-10 4.477-10 10s4.477 10 10 10h30v40h-30c-5.523 0-10 4.477-10 10s4.477 10 10 10h30v40h-30c-5.523 0-10 4.477-10 10s4.477 10 10 10h30v40h-30c-5.523 0-10 4.477-10 10s4.477 10 10 10h30v40h-30c-5.523 0-10 4.477-10 10s4.477 10 10 10h30v40h-30c-5.523 0-10 4.477-10 10s4.477 10 10 10h30v46h-80V20h80zm0 0"/><path d="M378.281 11.719C370.723 4.16 360.68 0 350 0c-22.055 0-40 17.945-40 40v247.703c-11.39 4.02-20 14.965-20 28.297 0 11.348 6.336 21.242 15.652 26.34l-24.597 49.187a10 10 0 00.242 9.399l60 106c1.73 3.054 5.062 5.074 8.703 5.074 2.012 0 4.152-.64 5.957-1.98 1.816-1.352 2.434-2.676 2.832-3.247.004-.003.004-.007.008-.007l59.906-105.84a10 10 0 00.242-9.399l-24.59-49.175C403.605 337.289 410 327.472 410 316c0-13.035-8.36-24.152-20-28.281V40c0-10.68-4.16-20.727-11.719-28.281zM330 40c0-11.027 8.973-20 20-20 5.34 0 10.36 2.082 14.14 5.86 3.778 3.78 5.86 8.8 5.86 14.14v246h-40zm-10 266h60c5.516 0 10 4.484 10 10 0 5.52-4.48 10-10 10h-60c-5.516 0-10-4.484-10-10 0-5.52 4.48-10 10-10zm78.676 89.71L360 464.032V416c0-5.523-4.477-10-10-10s-10 4.477-10 10v48.031l-38.676-68.32L326.18 346h47.64zM0 30v386c0 1.457.316 2.895.934 4.219l40 86C42.574 509.742 46.109 512 50 512s7.426-2.258 9.066-5.781l40-86c.614-1.32.934-2.762.934-4.219V30c0-16.543-13.457-30-30-30H30C13.457 0 0 13.457 0 30zm50 448.29L21.492 417h57.016zM80 397H20V127h60zm0-290H20V87h60zm0-77v37H20V30c0-5.516 4.484-10 10-10h40c5.516 0 10 4.484 10 10zm0 0"/></svg>