<svg xmlns="http://www.w3.org/2000/svg" viewBox="0 0 512 512"><path d="M482 356h-32V93.198h3.294a10.002 10.002 0 008.476-15.307l-33.294-53.167a10 10 0 00-16.95 0l-33.294 53.167a10.002 10.002 0 008.476 15.307H390V287c0 5.522 4.477 10 10 10s10-4.478 10-10V83.198c0-4.025-2.379-7.496-5.808-9.082L420 48.873l15.808 25.243A10.004 10.004 0 00430 83.198V356h-72c-16.542 0-30 13.458-30 30v3.72a29.857 29.857 0 00-10-1.72h-44.937V277.844c0-27.57-22.43-50-50-50h-11.824v-12.185a33.556 33.556 0 0013.759 2.943h51.881c16.333 0 29.621-13.287 29.621-29.62s-13.288-29.621-29.621-29.621h-25.712v-11.252c0-30.246-20.459-55.788-48.26-63.558 6.338-7.947 10.14-18.002 10.14-28.934v-9.123C213.048 20.856 192.191 0 166.555 0s-46.493 20.856-46.493 46.493v9.123c0 10.738 3.669 20.629 9.806 28.509-28.588 7.239-49.806 33.177-49.806 63.984v51.819c0 24.129 17.21 44.312 40 48.924V305.5c0 5.522 4.477 10 10 10s10-4.478 10-10v-57.656h83.001c16.542 0 30 13.458 30 30V388h-24v-98.083c0-5.522-4.477-10-10-10H174c-5.523 0-10 4.478-10 10V436h-23.938v-49c0-5.522-4.477-10-10-10s-10 4.478-10 10v49H30c-16.542 0-30 13.458-30 30v36c0 5.522 4.477 10 10 10h492c5.523 0 10-4.478 10-10V386c0-16.542-13.458-30-30-30zM140.062 46.493c0-14.608 11.885-26.493 26.493-26.493 14.608 0 26.493 11.885 26.493 26.493v9.123c0 14.607-11.885 26.492-26.493 26.492-14.608 0-26.493-11.885-26.493-26.492v-9.123zm61.177 101.77c-5.523 0-10 4.478-10 10v69.581h-51.177v-69.581c0-5.523-4.477-10-10-10s-10 4.478-10 10v69.885c-11.635-4.101-20-15.199-20-28.22v-51.819c0-25.364 20.636-46 46-46h39.105c25.365 0 46 20.636 46 46v21.252c0 5.522 4.477 10 10 10h35.712c5.305 0 9.621 4.316 9.621 9.621s-4.316 9.62-9.621 9.62h-51.881c-7.586 0-13.759-6.172-13.759-13.758v-26.581c0-5.522-4.477-10-10-10zM164 492H20v-26c0-5.514 4.486-10 10-10h124c5.514 0 10 4.486 10 10v26zm20-192.083h25.063V388H194c-3.506 0-6.87.61-10 1.72v-89.803zM328 492H184v-74c0-5.514 4.486-10 10-10h124c5.514 0 10 4.486 10 10v74zm164 0H348V386c0-5.514 4.486-10 10-10h124c5.514 0 10 4.486 10 10v106z"/><path d="M137.13 337.32c-1.86-1.859-4.44-2.93-7.07-2.93s-5.2 1.07-7.07 2.93c-1.86 1.86-2.93 4.44-2.93 7.07s1.07 5.21 2.93 7.07c1.86 1.859 4.44 2.93 7.07 2.93s5.21-1.07 7.07-2.93 2.93-4.44 2.93-7.07-1.07-5.21-2.93-7.07zm269.94-19.39c-1.86-1.86-4.44-2.93-7.07-2.93s-5.21 1.069-7.07 2.93c-1.86 1.86-2.93 4.44-2.93 7.07s1.07 5.21 2.93 7.069c1.86 1.86 4.44 2.931 7.07 2.931s5.21-1.07 7.07-2.931c1.86-1.859 2.93-4.439 2.93-7.069s-1.07-5.21-2.93-7.07z"/></svg>