<svg viewBox="-46 1 511 511.999" xmlns="http://www.w3.org/2000/svg"><path d="M210.492 266c5.52 0 10-4.48 10-10s-4.48-10-10-10-10 4.48-10 10 4.48 10 10 10zm10-190V10c0-5.523-4.476-10-10-10-5.523 0-10 4.477-10 10v66c0 5.523 4.477 10 10 10 5.524 0 10-4.477 10-10zm-130 42.148c4.785-2.757 6.422-8.875 3.66-13.66l-30-51.957c-2.761-4.785-8.875-6.422-13.66-3.66-4.781 2.762-6.422 8.875-3.66 13.66l30 51.957c2.773 4.809 8.902 6.41 13.66 3.66zm253.66-3.66l30-51.957c2.762-4.785 1.125-10.898-3.66-13.66-4.785-2.762-10.898-1.125-13.66 3.66l-30 51.957c-2.762 4.785-1.121 10.903 3.66 13.66 4.766 2.754 10.89 1.141 13.66-3.66zm0 0"/><path d="M2.734 262.309l.036.043.011.015L202.734 508.31c.024.03.055.054.078.086a10.068 10.068 0 007.68 3.605c2.98 0 5.88-1.379 7.758-3.691l199.953-245.942a.04.04 0 01.012-.015l.035-.043c2.418-2.973 2.258-6.41 2.242-6.309 0-2.285-.832-4.543-2.191-6.246l-80-100c-1.934-2.418-4.895-3.754-7.809-3.754h-240c-.035 0-.07.008-.105.008a10.068 10.068 0 00-7.707 3.746l-80 100c-2.977 3.73-2.852 8.98.054 12.555zM31.512 266h86.547l64.386 185.648zm207.027 185.648L302.926 266h86.55zm95.465-275.253L389.688 246h-79.825zM316.44 166l-24.511 70.668L232.07 166zm-42.816 80h-23.133c-5.523 0-10 4.477-10 10s4.477 10 10 10h31.266l-71.266 205.48L139.227 266h31.265c5.524 0 10-4.477 10-10s-4.476-10-10-10H147.36l63.133-74.527zm-84.707-80l-59.863 70.668L104.547 166zM86.98 176.395L111.121 246H31.297zm0 0"/></svg>