<svg viewBox="0 -26 512.001 512" xmlns="http://www.w3.org/2000/svg"><path d="M196 240c5.52 0 10-4.48 10-10 0-5.488-4.453-10-10-10-5.52 0-10 4.48-10 10 0 5.55 4.496 10 10 10zm0 0"/><path d="M256 420c61.785 0 110-50.117 110-110 0-60.652-49.348-110-110-110-8.688 0-17.395.992-26.227 3.145-5.367 1.308-8.656 6.718-7.347 12.082 1.308 5.367 6.719 8.66 12.082 7.347C241.41 220.894 249.039 220 256 220c49.625 0 90 40.375 90 90 0 50.96-41.39 90-90 90-49.625 0-90-40.375-90-90 0-15.254 3.867-30.82 12.105-45.117 2.754-4.785 1.114-10.903-3.671-13.656-4.79-2.762-10.903-1.114-13.66 3.671-4.708 8.172-8.516 16.942-11.297 27.543C149.129 284.31 146 294.72 146 310c0 60.656 49.348 110 110 110zM147.727 290.477c.007-.032.015-.059.02-.09a.942.942 0 01-.02.09zm0 0"/><path d="M236.875 357.684c4.117 3.203 8.371 6.52 12.879 10.125 1.824 1.46 4.035 2.191 6.246 2.191s4.422-.73 6.246-2.191c4.5-3.598 8.746-6.907 12.856-10.106 7.234-5.64 13.48-10.508 18.964-15.281C305.461 332.504 316 321.109 316 305.05c0-19.655-15.375-35.05-35-35.05-11.074 0-19.285 4.805-25 10.816-5.715-6.011-13.922-10.816-25-10.816-19.625 0-35 15.395-35 35.05 0 20.786 17.145 34.145 40.875 52.634zM231 290c10.996 0 15.023 11.629 15.422 12.875a10 10 0 0019.156 0C265.618 302.746 269.57 290 281 290c9.848 0 15 7.57 15 15.05 0 6.598-4.227 12.848-15.066 22.29-5.07 4.414-11.122 9.129-18.125 14.586-2.223 1.73-4.48 3.492-6.809 5.316-2.332-1.832-4.605-3.601-6.832-5.336C227.375 324.926 216 315.574 216 305.051c0-7.48 5.152-15.051 15-15.051zM17.14 256.902C44.04 229.48 140.763 140 256 140c115.234 0 211.96 89.48 238.86 116.902 3.855 3.93 10.187 4.016 14.144.137 3.941-3.867 4.004-10.2.137-14.14C480.859 214.065 379.027 120 256 120S31.14 214.066 2.86 242.898c-3.864 3.942-3.805 10.274.14 14.141 3.938 3.867 10.27 3.805 14.14-.137zm0 0"/><path d="M77.148 387.89C128.766 428.099 191.098 460 256 460c64.898 0 127.23-31.902 178.852-72.11 45.312-35.3 73.73-70.128 74.918-71.593a9.997 9.997 0 000-12.594c-1.188-1.465-29.602-36.293-74.918-71.59C383.234 191.906 320.902 160 256 160s-127.238 31.906-178.852 72.113c-45.312 35.297-73.73 70.125-74.918 71.59a10.007 10.007 0 000 12.594c1.188 1.465 29.606 36.293 74.918 71.594zm12.645-140.273C129.469 216.77 190.512 180 256 180c65.492 0 126.535 36.77 166.21 67.617 32.524 25.285 56.442 50.871 66.618 62.383-10.176 11.512-34.094 37.098-66.617 62.383C382.535 403.23 321.492 440 256 440c-65.488 0-126.531-36.77-166.207-67.617-32.531-25.29-56.45-50.871-66.621-62.383 10.172-11.512 34.094-37.098 66.621-62.383zM256 80c5.523 0 10-4.477 10-10V10c0-5.523-4.477-10-10-10s-10 4.477-10 10v60c0 5.523 4.477 10 10 10zm-123.66 25.809c2.777 4.808 8.902 6.41 13.66 3.66 4.785-2.758 6.422-8.875 3.66-13.66l-30-51.957c-2.762-4.786-8.879-6.422-13.66-3.66a10 10 0 00-3.66 13.66zm233.66 3.66c4.766 2.754 10.89 1.14 13.66-3.66l30-51.957c2.762-4.786 1.125-10.899-3.66-13.66-4.785-2.762-10.898-1.126-13.66 3.66l-30 51.957c-2.762 4.785-1.121 10.902 3.66 13.66zm0 0"/></svg>