<svg xmlns="http://www.w3.org/2000/svg" viewBox="0 0 512.001 512.001"><path d="M37.07 309.64c-1.859-1.86-4.439-2.93-7.069-2.93s-5.21 1.07-7.07 2.93-2.93 4.43-2.93 7.07c0 2.63 1.069 5.21 2.93 7.07 1.86 1.859 4.44 2.93 7.07 2.93s5.21-1.07 7.069-2.93c1.86-1.87 2.931-4.44 2.931-7.07s-1.07-5.21-2.931-7.07zM57.072 76.928l-20-20c-3.906-3.904-10.236-3.904-14.143 0l-20 20c-3.905 3.905-3.905 10.237 0 14.143 3.906 3.904 10.236 3.904 14.143 0l2.929-2.928v188.245c0 5.522 4.478 10 10 10s10-4.478 10-10V88.143l2.929 2.929C44.883 93.023 47.442 94 50.001 94s5.118-.977 7.071-2.929c3.905-3.905 3.905-10.237 0-14.143zm452.001 344.001l-20-20c-3.906-3.904-10.236-3.904-14.143 0-3.905 3.905-3.905 10.237 0 14.143l2.929 2.929h-35.888V277.667c0-5.522-4.478-10-10-10s-10 4.478-10 10V418H313.606v-64c0-5.522-4.478-10-10-10s-10 4.478-10 10v64h-83.13V257.525c0-5.522-4.478-10-10-10s-10 4.478-10 10V418h-80.29v-62.5c0-5.522-4.478-10-10-10s-10 4.478-10 10V418H40.001v-57.555c0-5.522-4.478-10-10-10s-10 4.478-10 10V428c0 5.522 4.478 10 10 10h447.857l-2.929 2.929c-3.905 3.905-3.905 10.237 0 14.143 1.953 1.952 4.512 2.929 7.071 2.929s5.118-.977 7.071-2.929l20-20c3.907-3.906 3.907-10.238.002-14.143z"/><path d="M431.969 131.476c-19.91 0-36.107 16.197-36.107 36.107 0 5.71 1.338 11.113 3.708 15.918l-78.304 78.304a35.875 35.875 0 00-17.662-4.632c-6.27 0-12.17 1.609-17.314 4.431l-52.962-52.962a35.88 35.88 0 003.253-14.951c0-19.91-16.197-36.108-36.107-36.108s-36.108 16.198-36.108 36.108a35.872 35.872 0 004.264 17.001l-51.027 51.027a35.882 35.882 0 00-17.419-4.492c-19.91 0-36.107 16.197-36.107 36.107s16.199 36.107 36.109 36.107 36.108-16.197 36.108-36.107a35.878 35.878 0 00-4.532-17.488l50.816-50.816a35.873 35.873 0 0017.897 4.768 35.887 35.887 0 0019.794-5.931l51.82 51.82a35.87 35.87 0 00-4.592 17.593c0 19.91 16.197 36.108 36.107 36.108s36.107-16.198 36.107-36.108a35.883 35.883 0 00-4.392-17.244l77.721-77.721a35.883 35.883 0 0018.929 5.376c19.91 0 36.107-16.198 36.107-36.108 0-19.91-16.197-36.107-36.107-36.107zM100.187 309.442c-8.881 0-16.107-7.226-16.107-16.107s7.224-16.108 16.106-16.108c4.351 0 8.298 1.741 11.2 4.555.049.051.092.107.142.157.059.059.124.109.185.167 2.83 2.904 4.582 6.863 4.582 11.229 0 8.882-7.227 16.107-16.108 16.107zm100.289-99.645c-8.881 0-16.108-7.226-16.108-16.107s7.226-16.108 16.108-16.108c8.882 0 16.107 7.227 16.107 16.108s-7.226 16.107-16.107 16.107zm103.13 99.59c-8.881 0-16.107-7.227-16.107-16.108s7.226-16.107 16.107-16.107 16.107 7.225 16.107 16.107-7.226 16.108-16.107 16.108zM431.971 183.69c-8.881 0-16.107-7.227-16.107-16.108s7.225-16.107 16.107-16.107 16.107 7.226 16.107 16.107-7.226 16.108-16.107 16.108z"/><path d="M439.041 228.93c-1.86-1.86-4.44-2.93-7.07-2.93s-5.21 1.069-7.07 2.93c-1.859 1.86-2.93 4.44-2.93 7.07s1.07 5.21 2.93 7.069c1.86 1.86 4.44 2.931 7.07 2.931s5.21-1.07 7.07-2.931c1.859-1.859 2.93-4.439 2.93-7.069s-1.07-5.21-2.93-7.07z"/></svg>