<svg viewBox="-26 0 512 512" xmlns="http://www.w3.org/2000/svg"><path d="M140 206c-5.52 0-10 4.48-10 10s4.48 10 10 10 10-4.48 10-10-4.48-10-10-10zm22.047-22.344C176.734 160.078 202.14 146 230 146c5.523 0 10-4.477 10-10s-4.477-10-10-10c-34.813 0-66.563 17.602-84.93 47.082-2.918 4.688-1.484 10.856 3.203 13.777 4.707 2.93 10.864 1.47 13.774-3.203zm0 0"/><path d="M160 462c0 27.57 22.43 50 50 50h40c27.57 0 50-22.43 50-50v-36.238c0-31.04 12.688-60.739 35.727-83.625C364.277 313.785 380 276.094 380 236c0-83.531-68.5-151.406-152.621-149.98-78.332 1.343-144.399 66.109-147.274 144.37-1.527 41.462 13.657 80.645 42.754 110.333C146.813 365.14 160 395.383 160 425.87zm120 0c0 16.543-13.457 30-30 30h-40c-16.543 0-30-13.457-30-30v-16h100zm-60-36V286h20v140zm-82.86-99.281c-25.214-25.723-38.37-59.672-37.046-95.59 2.492-67.824 59.746-123.95 127.629-125.11C300.305 104.774 360 163.317 360 236c0 34.727-13.625 67.379-38.367 91.945C294.785 354.617 280 389.355 280 425.762V426h-20V286h10c16.543 0 30-13.457 30-30s-13.457-30-30-30-30 13.457-30 30c0 3.508.61 6.871 1.719 10H218.28a29.86 29.86 0 001.72-10c0-16.543-13.457-30-30-30s-30 13.457-30 30 13.457 30 30 30h10v140h-20v-.129c0-35.758-15.223-70.973-42.86-99.152zM260 256c0-5.516 4.484-10 10-10s10 4.484 10 10-4.484 10-10 10-10-4.484-10-10zm-60 0c0 5.516-4.484 10-10 10s-10-4.484-10-10 4.484-10 10-10 10 4.484 10 10zm40-200V10c0-5.523-4.477-10-10-10s-10 4.477-10 10v46c0 5.523 4.477 10 10 10s10-4.477 10-10zm151.21 8.79c-3.905-3.907-10.233-3.907-14.144 0L348.79 93.07c-3.906 3.903-3.906 10.235 0 14.14s10.234 3.907 14.145 0l28.277-28.28a9.996 9.996 0 000-14.14zm-280 42.42c3.907-3.905 3.907-10.237 0-14.14L82.935 64.79c-3.907-3.907-10.239-3.907-14.145 0s-3.906 10.237 0 14.14l28.277 28.28c3.907 3.907 10.239 3.907 14.145 0zM410 206c-5.523 0-10 4.477-10 10s4.477 10 10 10h40c5.523 0 10-4.477 10-10s-4.477-10-10-10zm-400 0c-5.523 0-10 4.477-10 10s4.477 10 10 10h40c5.523 0 10-4.477 10-10s-4.477-10-10-10zm0 0"/></svg>