<svg xmlns="http://www.w3.org/2000/svg" viewBox="0 0 512 512"><path d="M336 166c-5.52 0-10 4.48-10 10s4.48 10 10 10 10-4.48 10-10-4.48-10-10-10z"/><path d="M462.638 206.74L426 130.716V73c0-13.036-8.361-24.152-20-28.28V30c0-16.542-13.458-30-30-30h-40c-16.542 0-30 13.458-30 30v14.72A30.144 30.144 0 00287.72 63h-71.74c-9.376-12.457-24.2-20-39.98-20-27.57 0-50 22.43-50 50 0 5.233.804 10.328 2.369 15.213l-53.659 77.82C47.735 186.721 26 208.862 26 236c0 27.539 22.38 49.947 49.907 49.998l66.682 91.496a70.57 70.57 0 00-16.093 12.008c-11.046 11.056-17.925 25.154-19.894 40.396C83.511 434.309 66 454.643 66 479v23c0 5.522 4.478 10 10 10h320c5.522 0 10-4.478 10-10v-23c0-24.146-17.205-44.348-40-48.994V399c0-5.522-4.478-10-10-10h-40c-5.522 0-10 4.478-10 10v30h-20.726c-4.869-33.876-34.073-60-69.274-60h-4.928l-87.096-118.932A49.787 49.787 0 00126 236c0-5.231-.803-10.324-2.37-15.212l53.667-77.831c15.289-.401 29.56-7.84 38.682-19.957H286v7.716l-36.638 76.024C236.004 209.77 226 221.738 226 236c0 16.542 13.458 30 30 30h51.006c4.646 22.795 24.847 40 48.994 40s44.348-17.205 48.994-40H456c16.542 0 30-13.458 30-30 0-14.262-10.004-26.23-23.362-29.26zM79.586 265.782A29.74 29.74 0 0176 266c-16.542 0-30-13.458-30-30s13.458-30 30-30c.994 0 1.948.046 2.914.146 10.609 1.009 19.958 7.688 24.396 17.43l.006.013c1.781 3.894 2.684 8.07 2.684 12.411 0 4.088-.81 8.055-2.404 11.787-4.207 9.836-13.399 16.73-24.01 17.995zM326 409h20v20h-20v-20zm-50 40h80c16.542 0 30 13.458 30 30v13H86v-13c0-16.542 13.458-30 30-30h160zm-59.999-60c24.145 0 44.349 17.206 48.994 40H126.994c1.927-9.541 6.607-18.313 13.643-25.354 5.709-5.701 12.765-9.979 20.394-12.37a50.145 50.145 0 0114.97-2.276h40zm-29.719-20H176c-4.668 0-9.3.469-13.847 1.383L97.201 281.26a50.279 50.279 0 0016.073-11.954L186.282 369zm-73.84-167.219a50.246 50.246 0 00-16.335-11.548l43.451-63.016a50.23 50.23 0 0016.335 11.548l-43.451 63.016zm89.553-93.789C196.639 117.249 186.678 123 176 123c-.994 0-1.948-.046-2.914-.146-10.609-1.009-19.958-7.688-24.401-17.442C146.903 101.517 146 97.341 146 93c0-16.542 13.458-30 30-30 10.675 0 20.632 5.747 25.989 14.999C204.613 82.545 206 87.731 206 93s-1.387 10.455-4.005 14.992zM326 30c0-5.514 4.486-10 10-10h40c5.514 0 10 4.486 10 10v13h-60V30zm-101.017 73A50.11 50.11 0 00226 93c0-3.371-.348-6.72-1.017-10H286v20h-61.017zM356 286c-13.036 0-24.152-8.361-28.28-20h56.56c-4.128 11.639-15.244 20-28.28 20zm100-40H256c-5.514 0-10-4.486-10-10s4.486-10 10-10c3.84 0 7.341-2.199 9.009-5.658l40-83c.652-1.354.991-2.839.991-4.342V73c0-5.514 4.486-10 10-10h80c5.514 0 10 4.486 10 10v60c0 1.503.339 2.987.991 4.342L420.802 166H376c-5.522 0-10 4.478-10 10s4.478 10 10 10h54.441l16.55 34.342A10.002 10.002 0 00456 226c5.514 0 10 4.486 10 10s-4.486 10-10 10z"/></svg>