<svg xmlns="http://www.w3.org/2000/svg" viewBox="0 0 512 512"><path d="M500.093 429.796H299.149c-5.522 0-10 4.478-10 10 0 9.188-7.475 16.663-16.663 16.663h-33.231c-9.188 0-16.663-7.475-16.663-16.663 0-5.522-4.478-10-10-10H56.475V172.835c0-11.489 9.348-20.837 20.837-20.837h124.715l.091.876-20.778 19.61-.207.201c-18.161 18.163-28.163 42.311-28.163 67.994v44.653a10.002 10.002 0 0016.7 7.425l43.759-39.482a9.985 9.985 0 005.791 4.551 129.216 129.216 0 0036.175 5.294l.443.001c12.399 0 24.716-1.781 36.614-5.295 2.563-.758 4.642-2.501 5.891-4.753l43.989 39.689a10.003 10.003 0 0010.762 1.713 10.002 10.002 0 005.938-9.138v-44.653c0-25.684-10.002-49.831-28.163-67.994l-19.217-19.217.186-1.477H434.69c11.489 0 20.837 9.348 20.837 20.837v183.344c0 5.522 4.478 10 10 10s10-4.478 10-10V172.835c0-22.518-18.319-40.837-40.837-40.837H314.15A166.128 166.128 0 00271.537 7.541l-1.758-1.937A17.083 17.083 0 00257.135 0h-.127a17.085 17.085 0 00-12.686 5.793l-3.313 3.764c-29.54 33.568-44.343 77.958-40.986 122.441H77.313c-22.518 0-40.837 18.319-40.837 40.837v256.961H11.909c-5.522 0-10 4.478-10 10v15.59C1.909 486.603 27.307 512 58.522 512h394.955c31.217 0 56.614-25.396 56.614-56.613v-15.591c.002-5.523-4.476-10-9.998-10zm-196.386-213.34l4.776-37.864 8.243 8.242c14.384 14.385 22.306 33.51 22.306 53.852v22.162l-36.969-33.355 1.644-13.037zM256.023 22.77l1.145-1.3a146.172 146.172 0 0136.329 116.108l-2.299 18.229-.004.022-9.627 76.339v.002l-1.024 8.121a109.174 109.174 0 01-24.704 2.83l-.375-.001a109.255 109.255 0 01-24.177-2.793l-7.879-76.047-.886-8.554-.001-.004-2.197-21.202c-4.193-40.473 8.819-81.205 35.699-111.75zm-45.98 206.622l-37.073 33.45V240.68c0-20.295 7.886-39.379 22.206-53.752l9.536-9.001 5.331 51.465zM453.479 492H58.522c-20.189 0-36.614-16.425-36.614-36.614v-5.59h182.068c4.363 15.372 18.526 26.663 35.277 26.663h33.231c16.751 0 30.914-11.291 35.277-26.663H490.09v5.591h.002c.001 20.188-16.424 36.613-36.613 36.613z"/><path d="M424.852 174.321H374.51c-5.522 0-10 4.478-10 10s4.478 10 10 10h40.342v193.741H100.506V194.321h31.718c5.522 0 10-4.478 10-10s-4.478-10-10-10H90.506c-5.522 0-10 4.478-10 10v213.741c0 5.522 4.478 10 10 10h334.345c5.522 0 10-4.478 10-10V184.321c.001-5.522-4.477-10-9.999-10z"/><circle cx="256.001" cy="105.57" r="10"/><circle cx="465.531" cy="399.77" r="10"/><path d="M229.998 277.651c-5.522 0-10 4.478-10 10v40.705c0 5.522 4.478 10 10 10s10-4.477 10-10v-40.705c0-5.522-4.477-10-10-10zm50.805-2.318c-5.522 0-10 4.478-10 10v60.026c0 5.522 4.478 10 10 10s10-4.477 10-10v-60.026c0-5.522-4.478-10-10-10z"/></svg>