<svg xmlns="http://www.w3.org/2000/svg" viewBox="0 0 511.999 511.999"><path d="M436.275 39.807H304.797C300.155 17.119 280.039 0 256 0s-44.156 17.119-48.798 39.807H75.725c-14.771 0-26.789 12.018-26.789 26.789V351.16c0 14.771 12.017 26.789 26.789 26.789H200.63l-40.566 120.866c-1.757 5.235 1.063 10.904 6.299 12.662a9.991 9.991 0 003.183.522c4.179 0 8.076-2.641 9.479-6.821l42.702-127.229h68.546l42.702 127.229c1.403 4.181 5.3 6.821 9.479 6.821a10.02 10.02 0 003.183-.522c5.236-1.758 8.056-7.427 6.299-12.662L311.37 377.949h124.905c14.771 0 26.789-12.018 26.789-26.789V66.596c-.001-14.772-12.018-26.789-26.789-26.789zM256 20c12.93 0 23.963 8.274 28.082 19.807h-56.163C232.038 28.274 243.071 20 256 20zm187.063 331.16a6.797 6.797 0 01-6.789 6.789h-26.121v-142.56c0-5.522-4.477-10-10-10s-10 4.478-10 10V357.95H359.39V245.979c0-5.522-4.477-10-10-10s-10 4.478-10 10v111.97h-28.084v-79.255c0-5.522-4.477-10-10-10s-10 4.478-10 10v79.255h-25.308V253.277c0-5.522-4.477-10-10-10s-10 4.478-10 10v104.672h-29.037v-55.023c0-5.522-4.477-10-10-10s-10 4.478-10 10v55.023H173.74v-50.985c0-5.522-4.477-10-10-10s-10 4.478-10 10v50.985h-26.777v-39.337c0-5.522-4.477-10-10-10s-10 4.478-10 10v39.337h-31.24a6.797 6.797 0 01-6.789-6.789V66.596a6.797 6.797 0 016.789-6.789h360.55a6.797 6.797 0 016.789 6.789V351.16z"/><path d="M410.105 106.884c-.013-.137-.039-.269-.058-.404-.026-.188-.049-.377-.086-.564-.031-.158-.075-.312-.114-.467-.04-.161-.076-.323-.124-.482-.046-.153-.104-.301-.158-.451-.056-.158-.109-.317-.173-.473-.058-.139-.125-.272-.189-.407-.075-.161-.147-.323-.231-.48-.068-.127-.146-.249-.22-.373-.093-.156-.181-.314-.283-.466-.089-.134-.19-.259-.285-.388-.098-.133-.191-.268-.297-.397a9.896 9.896 0 00-.567-.627c-.033-.033-.06-.07-.093-.103-.032-.032-.068-.059-.1-.09-.203-.198-.412-.39-.631-.57-.122-.1-.25-.188-.376-.281-.136-.102-.269-.207-.41-.302-.144-.096-.293-.179-.44-.267-.133-.08-.264-.163-.401-.237-.146-.078-.296-.144-.445-.214-.147-.07-.292-.143-.444-.206-.141-.058-.285-.105-.427-.156-.166-.06-.329-.123-.499-.174-.139-.042-.279-.072-.419-.108-.176-.045-.35-.094-.53-.129-.156-.031-.314-.049-.471-.072-.166-.025-.329-.055-.497-.072a10.255 10.255 0 00-.804-.041c-.06-.001-.118-.009-.178-.009h-43.197c-5.523 0-10 4.478-10 10s4.477 10 10 10h19.054l-83.028 83.028-21.797-21.798a10.001 10.001 0 00-14.142 0l-72.161 72.162-21.543-21.543c-3.905-3.904-10.237-3.904-14.142 0l-36.492 36.492c-3.905 3.905-3.905 10.237 0 14.143a9.972 9.972 0 007.071 2.929 9.97 9.97 0 007.071-2.929l29.42-29.421 21.543 21.542c3.905 3.904 10.237 3.904 14.142 0l72.161-72.161 21.797 21.798a10.001 10.001 0 0014.142 0l90.099-90.099v19.054c0 5.522 4.477 10 10 10s10-4.478 10-10V107.88a9.435 9.435 0 00-.048-.996z"/><circle cx="119.779" cy="107.869" r="10"/><circle cx="119.779" cy="148.639" r="10"/><circle cx="119.779" cy="189.409" r="10"/></svg>