<svg viewBox="-22 0 512 512" xmlns="http://www.w3.org/2000/svg"><path d="M227.691 372c5.52 0 10-4.48 10-10s-4.48-10-10-10-10 4.48-10 10 4.48 10 10 10zm0 0"/><path d="M237.691 0c-60.652 0-110 49.348-110 110v22.008c-56.425.277-103.718 42.773-109.941 98.933-10.86 101.934-33.254 147.364-1.094 206.496C41.375 482.887 86.973 512 137.691 512c50.817 0 96.368-29.203 121.036-74.559 31.64-58.152 10.242-104.5-1.094-206.543-6.242-56.199-53.457-98.617-109.942-98.89V110c0-49.625 40.375-90 90-90 49.73 0 90 40.234 90 90v146c0 38.598 31.403 70 70 70 38.707 0 70-31.324 70-70V10c0-5.523-4.476-10-10-10-5.523 0-10 4.477-10 10v246c0 27.648-22.37 50-50 50-27.57 0-50-22.43-50-50V110c0-60.781-49.175-110-110-110zm-100 202c5.524 0 10 4.477 10 10v40c0 5.516-4.484 10-10 10-5.511 0-10-4.484-10-10v-40c0-5.516 4.489-10 10-10zM37.633 233.102c5.09-45.95 43.797-80.813 90.058-81.09V182c0 .57.059 1.125.153 1.668-11.719 4.086-20.153 15.238-20.153 28.332v40c0 13.035 8.364 24.152 20 28.281v51.094c-34.93-4.195-67.558-29.52-95.578-55.309 2.285-15.472 4.059-29.27 5.52-42.964zm203.523 194.78C219.648 467.435 180.004 492 137.691 492c-42.308 0-81.953-24.566-103.464-64.117-21.618-39.75-14.399-74.457-5.778-128.219C59.891 327.22 96.594 352 137.691 352c41.11 0 77.832-24.809 109.301-52.39 9.04 57.074 15.25 89.527-5.836 128.273zm-3.402-194.777c1.535 13.801 3.332 27.56 5.598 42.88-28.047 25.827-60.707 51.187-95.66 55.39v-51.094c11.64-4.129 20-15.246 20-28.281v-40c0-13.203-8.5-24.305-20.149-28.344.09-.539.148-1.09.148-1.656v-29.988c46.278.277 84.95 35.039 90.063 81.093zm0 0"/><path d="M160.121 469.25c26.695-6.684 49.238-24.766 63.477-50.926 2.543-4.676 4.57-9.097 6.203-13.515a9.996 9.996 0 00-5.91-12.848c-5.184-1.914-10.934.73-12.848 5.91-1.297 3.516-2.941 7.082-5.012 10.899-11.531 21.183-29.562 35.77-50.765 41.078-5.36 1.343-8.618 6.773-7.274 12.129 1.344 5.375 6.79 8.613 12.13 7.273zm0 0"/></svg>