<svg viewBox="-10 0 512 512" xmlns="http://www.w3.org/2000/svg"><path d="M396.004 185.996c5.52 0 10-4.48 10-10s-4.48-10-10-10-10 4.48-10 10 4.48 10 10 10zm0 0"/><path d="M388.195 442.246c5.278 6.598 15.926 4.074 17.614-4.27l85.98-425.913a10.012 10.012 0 00-2.152-8.536c-.004 0-.004 0-.008-.004V3.52c-2.66-3.13-6.219-3.34-6.32-3.442-1.504-.156-2.871-.11-4.48.434L13.011 146.453c-9.047 2.836-9.414 15.57-.524 18.906l152.477 57.18-18.863 132.043c-.008.05-.004.098-.008.145-1.004 7.878 7.191 13.808 14.383 10.214l118.48-59.246zm2.243-29.21c-6.422-8.032-134.75-168.438-140.793-175.993L466.113 38.172zM46.741 156.843L419.395 40.09 174.69 204.824zm138.531 64.969l192.313-129.47-148.348 136.29c-.039.035-.07.074-.11.11-.128.12-.25.25-.374.378-.113.121-.227.242-.332.367a7.15 7.15 0 00-.27.332c-.129.16-.25.32-.363.489-.035.05-.074.093-.105.144l-55.547 83.317zm-.062 108.398l51.527-77.29 29.442 36.802zm0 0"/><path d="M367.64 355.438c5.462.816 10.555-2.942 11.376-8.407l19.527-130.23c.82-5.461-2.941-10.555-8.406-11.375-5.465-.813-10.551 2.945-11.371 8.406l-19.532 130.23c-.82 5.465 2.946 10.555 8.407 11.375zM2.93 509.07c3.906 3.907 10.234 3.903 14.14 0l66.004-66c3.903-3.906 3.903-10.238 0-14.144-3.906-3.903-10.238-3.903-14.144 0l-66 66c-3.907 3.906-3.907 10.238 0 14.144zm166-80.144l-66 66.004c-3.907 3.902-3.907 10.234 0 14.14s10.238 3.907 14.144 0l66-66c3.906-3.906 3.906-10.238 0-14.144-3.906-3.903-10.238-3.903-14.144 0zm-166-19.856c3.906 3.903 10.234 3.903 14.14 0l66.004-66c3.903-3.906 3.903-10.238 0-14.144-3.906-3.906-10.238-3.906-14.144 0l-66 66c-3.907 3.906-3.907 10.238 0 14.144zm0 0"/></svg>