<svg xmlns="http://www.w3.org/2000/svg" viewBox="0 0 512 512"><path d="M251.069 58.93A10.054 10.054 0 00244 56c-2.63 0-5.21 1.07-7.07 2.93S234 63.37 234 66s1.069 5.21 2.93 7.07C238.8 74.93 241.37 76 244 76s5.21-1.07 7.069-2.93C252.939 71.21 254 68.63 254 66s-1.061-5.21-2.931-7.07z"/><path d="M502 382h-16V110c0-29.776-24.225-54-54-54H286c-5.522 0-10 4.477-10 10s4.478 10 10 10h146c18.748 0 34 15.252 34 34v38.532L213.599 308.484l-82.058-82.058a10.003 10.003 0 00-14.142 0L46 297.824v-59.749l78.47-78.47 80.647 80.648a10.002 10.002 0 0012.424 1.376l156.531-99.197c.508 4.274 3.753 7.892 8.211 8.669.581.101 1.158.15 1.729.15 4.77 0 8.993-3.425 9.84-8.285l4.021-23.082a10.002 10.002 0 00-9.851-11.716h-22.336c-5.522 0-10 4.477-10 10a9.992 9.992 0 005.35 8.849l-147.437 93.434-82.058-82.058a10.003 10.003 0 00-14.142 0L46 209.791V110c0-18.748 15.252-34 34-34h119c5.522 0 10-4.477 10-10s-4.478-10-10-10H80c-29.775 0-54 24.224-54 54v272H10c-5.522 0-10 4.477-10 10v13c0 28.122 22.879 51 51 51h410c28.121 0 51-22.878 51-51v-13c0-5.523-4.478-10-10-10zM398 215.302l68-43.093V382h-68V215.302zm-88 55.768l68-43.093V382h-68V271.07zm-88 55.768l68-43.093V382h-68v-55.162zm-88-69.668l68 68V382h-68V257.17zm-88 68.939l68-68V382H46v-55.891zM492 405c0 17.093-13.906 31-31 31H51c-17.094 0-31-13.907-31-31v-3h472v3z"/></svg>