<svg viewBox="-65 0 511 511.999" xmlns="http://www.w3.org/2000/svg"><path d="M110.504 109.883c5.523 0 10-4.48 10-10 0-5.531-4.477-10-10-10a9.993 9.993 0 00-9.996 10c0 5.52 4.476 10 9.996 10zm0 0"/><path d="M376.465 181.438c7.32-12.833 4.48-29.075-6.754-38.63l-33.867-28.757c-1.875-1.594-3.149-3.836-3.586-6.309L324.59 64.29c-2.563-14.648-15.125-25.273-29.871-25.273h-44.207a10.16 10.16 0 01-6.52-2.375L210.125 7.27c-.027-.024-.059-.047-.086-.075a30.116 30.116 0 00-39.156.075L137.09 36.574a10.19 10.19 0 01-6.586 2.442H86.285c-14.742 0-27.305 10.629-29.867 25.257l-7.684 43.493c-.43 2.46-1.695 4.691-3.57 6.28L11.29 142.813c-11.23 9.551-14.066 25.793-6.746 38.622l22.11 38.761a10.795 10.795 0 011.253 7.188l-7.68 44.07c-2.542 14.621 5.645 28.926 19.462 34.008l41.546 15.312c.829.305 1.61.715 2.325 1.22L6.543 457.046c-4.39 7.7 2.707 16.906 11.273 14.613l44.98-12.05 12.052 44.976c2.3 8.59 13.902 10.156 18.343 2.367l79.48-139.363 14.333-5.281a10.15 10.15 0 016.992-.004l15.414 5.68 85.281 139.238c4.579 7.468 15.914 5.859 18.188-2.637l12.055-44.977 44.976 12.051c8.688 2.336 15.832-7.183 11.117-14.883l-82.855-135.25a9.72 9.72 0 011.605-.757l41.532-15.31c13.843-5.085 22.03-19.394 19.472-34.01l-7.68-44.071a10.8 10.8 0 011.254-7.188zM87.87 475.918l-8.344-31.145c-1.43-5.335-6.914-8.5-12.25-7.07l-31.492 8.438 59.863-104.985 13.11 22.977c7.035 12.347 21.43 18.066 34.82 14.101zm263.012-30.059l-30.434-8.156c-5.34-1.43-10.82 1.738-12.25 7.07l-8.613 32.153-60.121-98.156c2.172.48 4.355.718 6.523.718 10.594-.004 20.715-5.62 26.258-15.351l13.777-24.153zm-13.899-235.574a30.838 30.838 0 00-3.586 20.531l7.68 44.075c.895 5.09-1.914 10.054-6.676 11.804L292.872 302c-6.224 2.29-11.52 6.61-15.09 12.215a9.652 9.652 0 00-1.048 1.7l-21.859 38.32c-2.508 4.398-7.73 6.335-12.414 4.617a369878.2 369878.2 0 00-41.559-15.313 30.192 30.192 0 00-20.804.004c-.805.289-18.528 6.824-41.543 15.309-4.692 1.726-9.914-.22-12.422-4.622l-20.57-36.054a10.02 10.02 0 00-2.977-4.985 30.382 30.382 0 00-14.441-11.187L46.602 286.69c-4.75-1.746-7.559-6.714-6.672-11.808l7.68-44.067a30.813 30.813 0 00-3.583-20.53l-22.109-38.763c-2.563-4.48-1.578-10.148 2.324-13.468l33.871-28.762a30.684 30.684 0 0010.325-18.07l7.68-43.485c.886-5.054 5.163-8.726 10.171-8.726h44.219c7.133 0 14.07-2.555 19.61-7.266l33.82-29.324a10.18 10.18 0 0113.136 0l33.895 29.39a30.201 30.201 0 0019.543 7.2h44.21c5.008 0 9.286 3.672 10.173 8.738l7.671 43.469c1.243 7.05 4.91 13.468 10.332 18.074l33.864 28.754c3.91 3.324 4.89 8.992 2.332 13.476zm0 0"/><path d="M190.504 59.746c-17.215 0-33.95 3.316-49.738 9.86-5.102 2.113-7.524 7.964-5.41 13.066 2.117 5.101 7.968 7.52 13.066 5.41 13.348-5.535 27.508-8.34 42.082-8.34 60.652 0 109.996 49.344 109.996 109.996 0 60.653-49.344 109.996-109.996 109.996S80.508 250.391 80.508 189.738c0-18.812 4.832-37.383 13.972-53.699 2.7-4.816.98-10.914-3.835-13.613-4.82-2.7-10.915-.98-13.614 3.836-10.808 19.297-16.523 41.246-16.523 63.48 0 71.68 58.316 129.996 129.996 129.996S320.5 261.422 320.5 189.742c0-71.683-58.316-129.996-129.996-129.996zm0 0"/><path d="M151.23 202.64l-5.851 34.087a9.997 9.997 0 003.98 9.78 9.992 9.992 0 0010.528.763l30.617-16.094 30.617 16.094a10 10 0 0014.508-10.543l-5.852-34.086 24.766-24.141a9.997 9.997 0 002.531-10.25 10.016 10.016 0 00-8.074-6.809l-34.227-4.972-15.3-31.012a10.01 10.01 0 00-8.97-5.578 10 10 0 00-8.968 5.578l-15.3 31.012-34.227 4.972a10.005 10.005 0 00-8.074 6.809 9.997 9.997 0 002.53 10.25zm23.083-27.136a10.004 10.004 0 007.53-5.469l8.66-17.555 8.665 17.555a9.991 9.991 0 007.527 5.469l19.38 2.816-14.024 13.668a10.006 10.006 0 00-2.875 8.852l3.312 19.297-17.332-9.11a9.996 9.996 0 00-9.304 0l-17.332 9.11 3.312-19.297a9.999 9.999 0 00-2.875-8.852l-14.023-13.668zm0 0"/></svg>