<svg xmlns="http://www.w3.org/2000/svg" viewBox="0 0 512 512"><path d="M509.07 93.916l-91-90.987A9.999 9.999 0 00411 0H114C97.458 0 84 13.458 84 30v19.064C34.875 68.334 0 116.215 0 172.091c0 5.522 4.478 10 10 10h122.091c5.522 0 10-4.478 10-10V50c0-5.522-4.478-10-10-10-9.638 0-19.034 1.047-28.091 3.017V30c0-5.514 4.486-10 10-10h287v61c0 16.542 13.458 30 30 30h61v371c0 5.514-4.486 10-10 10H114c-5.514 0-10-4.486-10-10v-85.667c0-5.522-4.478-10-10-10s-10 4.478-10 10V482c0 16.542 13.458 30 30 30h368c16.542 0 30-13.458 30-30V100.987a9.998 9.998 0 00-2.93-7.071zM122.09 60.443v101.648H20.442c4.781-53.848 47.801-96.867 101.648-101.648zM431 91c-5.514 0-10-4.486-10-10V34.14L477.868 91H431z"/><path d="M101.069 352.93C99.21 351.069 96.63 350 94 350s-5.21 1.069-7.07 2.93C85.07 354.79 84 357.37 84 360s1.069 5.21 2.93 7.069C88.79 368.93 91.37 370 94 370s5.21-1.07 7.069-2.931C102.93 365.21 104 362.63 104 360s-1.07-5.21-2.931-7.07zm66.84-277.111c-5.522 0-10 4.478-10 10v112.09H45.819c-5.522 0-10 4.478-10 10C35.819 280.744 95.074 340 167.909 340S300 280.744 300 207.909s-59.256-132.09-132.091-132.09zm10 20.443c23.41 2.078 44.771 11.388 61.836 25.67l-61.836 61.835V96.262zm-10 223.738c-58.437 0-106.574-44.949-111.647-102.091h111.647a9.969 9.969 0 007.068-2.926l.004-.003 78.909-78.908c16.291 19.467 26.11 44.527 26.11 71.837C280 269.716 229.716 320 167.909 320zm270.164-4.395c-16.542 0-30 13.458-30 30 0 4.146.846 8.097 2.373 11.692l-57.613 57.613a29.819 29.819 0 00-13.095-3.014 29.821 29.821 0 00-12.81 2.879l-38.258-38.258a29.845 29.845 0 002.062-10.913c0-16.542-13.458-30-30-30s-30 13.458-30 30c0 4.482.995 8.734 2.765 12.557l-36.695 36.695a29.808 29.808 0 00-12.897-2.919c-16.542 0-30 13.458-30 30s13.458 30 30 30 30-13.458 30-30c0-4.637-1.058-9.031-2.944-12.954l36.49-36.49a29.802 29.802 0 0013.283 3.111 29.804 29.804 0 0014.811-3.927l37.179 37.179a29.819 29.819 0 00-2.986 13.04c0 16.542 13.458 30 30 30s30-13.458 30-30c0-4.558-1.026-8.88-2.853-12.752l57.075-57.075a29.81 29.81 0 0014.113 3.536c16.542 0 30-13.458 30-30s-13.458-30-30-30zM183.904 451.938c-5.514 0-10-4.486-10-10s4.486-10 10-10a9.955 9.955 0 016.918 2.797c.04.042.075.087.116.128.048.048.1.088.149.134a9.96 9.96 0 012.817 6.941c0 5.513-4.486 10-10 10zm76.828-76.334c-5.514 0-10-4.486-10-10s4.486-10 10-10 10 4.486 10 10-4.486 10-10 10zm79.004 76.292c-5.514 0-10-4.486-10-10s4.486-10 10-10 10 4.486 10 10-4.486 10-10 10zm98.335-96.292c-5.514 0-10-4.486-10-10s4.487-10 10-10c5.514 0 10 4.486 10 10s-4.486 10-10 10zM388.09 235h-52.779c-5.522 0-10 4.478-10 10s4.477 10 10 10h52.779c5.522 0 10-4.478 10-10s-4.478-10-10-10zm52.599 2.93c-1.859-1.86-4.439-2.93-7.069-2.93s-5.21 1.069-7.07 2.93c-1.86 1.86-2.93 4.44-2.93 7.07s1.069 5.21 2.93 7.069a10.059 10.059 0 007.07 2.931c2.63 0 5.21-1.07 7.069-2.931 1.86-1.859 2.931-4.439 2.931-7.069s-1.07-5.21-2.931-7.07zM457.465 139H335.311c-5.522 0-10 4.478-10 10s4.477 10 10 10h122.154c5.522 0 10-4.478 10-10s-4.478-10-10-10zm0 48H335.311c-5.522 0-10 4.478-10 10s4.477 10 10 10h122.154c5.522 0 10-4.478 10-10s-4.478-10-10-10z"/></svg>