<svg viewBox="0 1 511 511.998" xmlns="http://www.w3.org/2000/svg"><path d="M201.496 215.98c5.52 0 10-4.48 10-10s-4.48-10-10-10-10 4.48-10 10 4.48 10 10 10zm0 0"/><path d="M499.16 205.98h-39.437a207.806 207.806 0 00-24.45-58.945l23.082-23.082a9.999 9.999 0 001.07-12.875 251.078 251.078 0 00-58.898-58.898 10 10 0 00-12.875 1.07l-23.074 23.07c-18.402-11.242-37.875-19.43-58.082-24.422V13.312a9.998 9.998 0 00-8.34-9.859c-27.304-4.598-55.863-4.61-83.312 0a9.998 9.998 0 00-8.348 9.86v38.57C185.371 57.03 165.04 65.379 146.91 76.34l-23.09-23.09a10.005 10.005 0 00-12.875-1.074 251.021 251.021 0 00-58.898 58.902 10 10 0 001.07 12.875L76.2 147.031a207.933 207.933 0 00-24.445 58.95H13.828a9.994 9.994 0 00-9.86 8.34A251.717 251.717 0 00.5 255.976a251.71 251.71 0 003.469 41.66 9.994 9.994 0 009.86 8.34h37.925c5.074 20.695 13.27 40.386 24.445 58.726l-23.082 23.082a10 10 0 00-1.074 12.871 250.964 250.964 0 0058.902 58.903 9.994 9.994 0 0012.871-1.07l23.082-23.083c18.348 11.188 37.993 19.38 58.598 24.442v38.797a9.994 9.994 0 008.34 9.859A250.724 250.724 0 00255.5 512c13.918 0 27.836-1.168 41.656-3.496a9.998 9.998 0 008.34-9.86v-38.792c20.969-5.114 40.774-13.313 59.074-24.446l23.082 23.082a9.999 9.999 0 0012.875 1.07 251.078 251.078 0 0058.899-58.898 10 10 0 00-1.074-12.875l-23.079-23.078c11.184-18.352 19.38-38.043 24.442-58.73h39.445a9.994 9.994 0 009.86-8.34 251.308 251.308 0 003.468-41.66c0-13.97-1.164-27.989-3.468-41.657a9.994 9.994 0 00-9.86-8.34zm-8.613 80H451.71a9.996 9.996 0 00-9.797 8.004c-4.832 23.746-14.156 46.153-27.715 66.598a10.001 10.001 0 001.262 12.598l22.656 22.656a230.974 230.974 0 01-42.414 42.418l-22.656-22.656a10.007 10.007 0 00-12.602-1.262c-20.015 13.281-43.168 22.863-66.949 27.715a9.996 9.996 0 00-8 9.797v38.187a230.235 230.235 0 01-60 0v-38.187a9.995 9.995 0 00-8.004-9.797c-23.64-4.824-46.004-14.149-66.469-27.719a10.002 10.002 0 00-12.597 1.266l-22.656 22.656a230.753 230.753 0 01-42.418-42.418l22.656-22.656a10.002 10.002 0 001.265-12.598c-13.55-20.434-22.875-42.84-27.718-66.602a9.996 9.996 0 00-9.797-8H22.445a232.323 232.323 0 010-60h37.313a9.996 9.996 0 009.797-8.003C74.438 194 83.765 171.52 97.27 151.16a9.997 9.997 0 00-1.262-12.601l-22.656-22.657a230.874 230.874 0 0142.418-42.418l22.656 22.66a10.002 10.002 0 0012.597 1.262c19.891-13.195 43.22-22.781 67.465-27.715a10.003 10.003 0 008.008-9.8V21.93a232.994 232.994 0 0160 0v37.96c0 4.755 3.348 8.852 8.004 9.801 23.445 4.77 45.02 13.832 65.95 27.707a10.001 10.001 0 0012.593-1.265l22.656-22.649a230.874 230.874 0 0142.418 42.418l-22.656 22.657a10.007 10.007 0 00-1.262 12.601c13.512 20.363 22.836 42.844 27.715 66.813a9.996 9.996 0 009.797 8.007h38.836a232.232 232.232 0 010 60zm0 0"/><path d="M256.496 105.98c-82.71 0-150 67.29-150 150 0 82.887 67.43 149.997 150 149.997 82.629 0 149.996-67.157 149.996-149.997 0-82.359-66.867-150-149.996-150zm114.754 89h-50.531c-5.133-25.859-13.188-47.042-23.297-62.242 31.254 10.524 58.031 32.735 73.828 62.242zm-244.754 61c0-14.32 2.336-28.105 6.633-41h28.387c5.523 0 10-4.476 10-10 0-5.523-4.477-10-10-10h-19.79c15.645-29.32 42.196-51.972 74.204-62.511-5.743 8.523-10.86 18.957-15.164 31.129-1.84 5.207.89 10.922 6.097 12.761s10.922-.89 12.762-6.093c9.652-27.317 23.781-44.286 36.871-44.286 17.23 0 34.895 28.395 43.781 69h-58.8c-5.524 0-10 4.477-10 10 0 5.524 4.476 10 10 10h62.3c1.793 13.227 2.715 26.977 2.715 41 0 13.32-.832 26.395-2.453 39h-95.086c-1.625-12.605-2.457-25.68-2.457-39 0-3.445.05-6.8.156-9.968.176-5.52-4.152-10.137-9.672-10.317-5.535-.16-10.14 4.149-10.32 9.672-.11 3.38-.164 6.953-.164 10.613 0 13.274.774 26.344 2.293 39H132.48c-3.968-12.582-5.984-25.668-5.984-39zm14.188 58.997h51.207c4.62 24.128 11.98 44.96 21.48 60.62.79 1.298 1.582 2.532 2.375 3.727-32.09-10.707-59.375-33.715-75.062-64.347zm115.812 71c-17.605 0-35.457-29.243-44.203-71.008h88.402c-8.746 41.765-26.593 71.008-44.199 71.008zm40.75-6.657a104.847 104.847 0 002.375-3.726c9.5-15.656 16.86-36.5 21.477-60.625h51.21c-15.69 30.633-42.972 53.648-75.062 64.351zm83.266-84.34h-56.313c1.52-12.656 2.293-25.726 2.293-39 0-13.972-.855-27.71-2.539-41h55.906c4.403 13.176 6.633 26.934 6.633 41 0 13.332-2.015 26.418-5.98 39zm0 0"/></svg>