<svg xmlns="http://www.w3.org/2000/svg" viewBox="0 0 512 512"><path d="M512 227.2v-24.533c0-.382-.021-.758-.062-1.131-.007-.067-.022-.132-.03-.199a10.158 10.158 0 00-.149-.913c-.017-.079-.042-.155-.06-.234a10.412 10.412 0 00-.234-.844c-.03-.093-.067-.183-.101-.275a10.686 10.686 0 00-.298-.752c-.016-.036-.027-.075-.044-.111l-48.09-104.544V53.331c0-5.89-4.776-10.667-10.667-10.667H59.735c-5.891 0-10.667 4.777-10.667 10.667v40.334L.976 198.208c-.017.036-.028.075-.044.111a10.22 10.22 0 00-.298.752c-.033.092-.07.182-.101.275a10.71 10.71 0 00-.233.844c-.019.078-.044.155-.061.234-.065.299-.111.605-.149.913-.008.067-.022.132-.03.199-.039.372-.06.749-.06 1.13V227.2c0 29.295 21.204 53.714 49.068 58.761v162.041H10.667C4.776 448.002 0 452.777 0 458.669c0 5.89 4.776 10.667 10.667 10.667h490.667c5.891 0 10.667-4.777 10.667-10.667 0-5.891-4.775-10.667-10.667-10.667h-38.4V285.961C490.796 280.914 512 256.495 512 227.2zM484.686 192h-73.365l-23.553-85.332h57.664L484.686 192zm-168.998 9.689l-8.742-95.021h58.691L389.19 192h-39.967c-5.89 0-10.667 4.775-10.667 10.667s4.777 10.667 10.667 10.667h43.31V227.2c0 21.174-17.226 38.4-38.4 38.4s-38.4-17.226-38.4-38.4v-24.533a11 11 0 00-.045-.978zM70.401 63.998H441.6v21.335H70.401V63.998zM257.435 192h-38.811l7.851-85.332h59.048l8.877 96.488V227.2c0 21.174-17.227 38.4-38.401 38.4s-38.4-17.226-38.4-38.4v-13.867h39.837c5.891 0 10.667-4.775 10.667-10.667S263.326 192 257.435 192zm-67.882 21.333h6.711V227.2c0 21.174-17.226 38.4-38.4 38.4s-38.4-17.226-38.4-38.4v-23.088l26.895-97.444h58.691L197.201 192h-7.648c-5.89 0-10.667 4.775-10.667 10.667s4.777 10.666 10.667 10.666zM21.333 227.2v-13.867h28.874c5.89 0 10.667-4.775 10.667-10.667S56.097 192 50.207 192H27.314l39.255-85.332h57.659l-25.712 93.16a10.675 10.675 0 00-.384 2.838V227.2c0 21.174-17.224 38.4-38.396 38.4-21.176 0-38.403-17.226-38.403-38.4zm155.734 151.467h-10.666c-5.891 0-10.667 4.777-10.667 10.667 0 5.891 4.776 10.667 10.667 10.667h10.666v48.001h-64.001V330.664h64.001v48.003zM441.6 448.002H198.401V319.997c0-5.89-4.777-10.667-10.667-10.667h-85.335c-5.891 0-10.667 4.777-10.667 10.667v128.005H70.401V285.961c15.848-2.87 29.535-12.006 38.396-24.751 10.798 15.531 28.76 25.724 49.067 25.724s38.269-10.194 49.067-25.725c10.798 15.532 28.76 25.725 49.067 25.725s38.27-10.194 49.068-25.725c10.798 15.532 28.76 25.725 49.067 25.725s38.269-10.194 49.067-25.725c8.862 12.746 22.55 21.883 38.4 24.752v162.041zM452.266 265.6c-21.174 0-38.4-17.226-38.4-38.4v-13.867h76.8V227.2c.001 21.174-17.225 38.4-38.4 38.4z"/><path d="M409.597 309.333H230.403c-5.89 0-10.667 4.777-10.667 10.667v96.001c0 5.89 4.776 10.664 10.667 10.664h179.194c5.89 0 10.667-4.776 10.667-10.667v-95.996c0-.354-.019-.708-.053-1.06-.015-.146-.043-.286-.063-.43-.028-.201-.052-.402-.092-.602-.033-.17-.08-.334-.122-.499-.043-.172-.08-.343-.132-.513-.049-.163-.111-.322-.169-.482-.06-.167-.115-.337-.185-.503-.062-.148-.133-.29-.202-.435-.079-.171-.156-.343-.245-.511-.073-.137-.156-.266-.236-.398-.098-.166-.193-.335-.301-.498-.096-.142-.202-.275-.304-.413-.106-.142-.204-.286-.318-.424-.19-.232-.393-.45-.601-.665-.035-.036-.066-.077-.102-.113-.034-.034-.071-.063-.108-.097-.217-.21-.438-.416-.672-.607-.133-.109-.273-.204-.41-.306-.143-.107-.282-.217-.429-.316-.157-.106-.321-.196-.481-.291-.139-.082-.273-.169-.415-.244-.162-.087-.331-.161-.497-.24-.149-.07-.295-.145-.449-.208-.161-.067-.326-.121-.49-.179-.164-.06-.328-.123-.496-.174-.163-.049-.331-.085-.495-.127-.173-.043-.342-.092-.517-.126-.191-.037-.382-.061-.573-.087-.155-.022-.304-.051-.46-.067a10.471 10.471 0 00-1.05-.054zm-168.528 95.999v-74.668h82.438l-4.582 4.582c-4.165 4.165-4.165 10.919 0 15.086a10.637 10.637 0 007.542 3.124 10.63 10.63 0 007.542-3.125l19.667-19.667h30.17l-74.666 74.668h-68.111zm157.862 0H339.35l59.581-59.582v59.582z"/><path d="M294.162 360.006l-4.643 4.643c-4.165 4.166-4.165 10.919.001 15.086 2.082 2.082 4.812 3.124 7.541 3.124s5.46-1.042 7.542-3.125l4.644-4.643c4.165-4.166 4.165-10.919-.001-15.086-4.163-4.166-10.918-4.165-15.084.001z"/></svg>