<svg viewBox="0 0 512 512" xmlns="http://www.w3.org/2000/svg"><path d="M279.754 133.27c-3.91 3.898-3.91 10.238 0 14.136 3.898 3.91 10.226 3.91 14.137 0 3.898-3.898 3.898-10.238 0-14.136-3.91-3.91-10.239-3.91-14.137 0zm-13.617 28.808c-4.192-3.598-10.504-3.117-14.102 1.074-11.086 12.918-31.45 37.293-43.297 55.418-3.023 4.621-1.726 10.82 2.899 13.84 4.64 3.031 10.828 1.707 13.84-2.898 11.644-17.817 33.062-43.235 41.734-53.332 3.598-4.192 3.113-10.504-1.074-14.102zm70.179-57.09c-19.543 19.532-19.554 51.157-.004 70.696 19.54 19.55 51.16 19.554 70.7 0 19.535-19.536 19.539-51.153 0-70.692-19.535-19.535-51.157-19.543-70.696-.004zm56.555 56.559h-.004c-11.719 11.726-30.68 11.738-42.414-.004-11.726-11.719-11.734-30.684.004-42.41 11.723-11.723 30.688-11.723 42.414 0 11.719 11.719 11.723 30.687 0 42.414zM17.117 509.027l62.504-62.507c3.906-3.903 3.906-10.235 0-14.141-3.906-3.902-10.234-3.902-14.14 0L2.976 494.883c-3.907 3.906-3.907 10.238 0 14.144 3.906 3.903 10.234 3.903 14.14 0zm99.993 0l62.503-62.507c3.903-3.903 3.903-10.235 0-14.141-3.906-3.902-10.234-3.902-14.144 0l-62.504 62.504c-3.903 3.906-3.903 10.238 0 14.144 3.91 3.903 10.238 3.903 14.144 0zM2.977 409.035c3.906 3.902 10.234 3.902 14.14 0l62.504-62.504c3.906-3.906 3.906-10.238 0-14.14a9.996 9.996 0 00-14.14 0L2.976 394.895c-3.907 3.902-3.907 10.234 0 14.14zm0 0"/><path d="M511.984 10.555a9.991 9.991 0 00-2.914-7.625 9.968 9.968 0 00-7.625-2.914c-50.82 2.836-172.195 27.187-249.984 104.976a612.058 612.058 0 00-47.078 52.899c-62.367-12.262-125.938 6.988-171.028 52.082A190.583 190.583 0 001.293 252.53c-4.848 8.774 4.86 18.414 13.586 13.59 39.976-22.07 86.988-27.012 130.578-14.055-3.852 8.766-6.988 17.141-9.336 24.989-2.656 8.82-.8 18.382 4.797 25.879a99.743 99.743 0 00-8.074 7.238c-25.739 25.738-30.973 88.465-31.184 91.125-.46 5.828 4.153 10.789 9.965 10.789a11 11 0 00.79-.031c2.655-.211 65.394-5.438 91.136-31.176a100.27 100.27 0 007.515-8.418c7.274 4.586 15.942 5.812 23.868 3.43 7.855-2.352 16.234-5.493 25.004-9.344 12.957 43.586 8.015 90.601-14.055 130.578-4.887 8.848 4.949 18.355 13.59 13.582 15.574-8.605 29.89-19.39 42.558-32.059 45.09-45.09 64.34-108.664 52.078-171.027a612.226 612.226 0 0052.903-47.082c38.293-38.293 67.304-89.668 86.238-152.7 9.844-31.253 17.457-74.378 18.734-97.284zM38.063 234.335a171.2 171.2 0 019.433-10.222c37.973-37.976 90.606-55.453 143.191-48.23-14.398 19.726-26.796 39.43-36.453 57.953-38.093-12.027-78.703-11.719-116.172.5zM189.41 366.739c-13.75 13.75-46.015 21-66.402 23.961 2.953-20.37 10.195-52.605 23.976-66.386a79.92 79.92 0 017.914-6.934l41.442 41.441a79.855 79.855 0 01-6.93 7.918zm39.778-10.004c-3.11.934-6.786-.132-9.368-2.714-14.28-14.282-55.004-55.004-61.836-61.836-2.586-2.582-3.648-6.262-2.71-9.383 2.226-7.446 5.253-15.465 9.027-23.926 19.715 8.473 37.469 20.531 52.883 35.938 15.41 15.417 27.468 33.171 35.941 52.886-8.46 3.774-16.484 6.805-23.938 9.035zm58.703 107.774a171.2 171.2 0 01-10.227 9.43c12.223-37.47 12.531-78.079.504-116.172 18.52-9.657 38.223-22.055 57.95-36.454 7.226 52.59-10.255 105.22-48.227 143.196zm104.98-218.11c-34.5 34.497-78.52 69.543-121.773 92.497-9.45-21.68-22.79-41.23-39.774-58.223-16.992-16.98-36.539-30.32-58.219-39.766 22.954-43.254 58-87.277 92.497-121.773 34.808-34.809 81.464-61.543 138.75-79.52l68.035 68.035c-17.973 57.286-44.711 103.942-79.516 138.75zM478.703 85.68L426.32 33.297c27.938-7.3 51.371-10.715 64.606-12.223-1.508 13.235-4.918 36.668-12.223 64.606zm0 0"/></svg>