<svg viewBox="0 0 512 512" xmlns="http://www.w3.org/2000/svg"><path d="M90 252c5.52 0 10-4.48 10-10 0-5.605-4.574-10-10-10-5.52 0-10 4.48-10 10 0 5.547 4.52 10 10 10zm0 0"/><path d="M190 512c104.766 0 190-85.234 190-190 0-39.98-12.773-79.207-36.121-111.45 4.93-4.933 28.062-28.058 28.23-28.23 6.899-6.898 9.711-16.355 8.454-25.351 17.5-.028 45.484-.055 60.812.031h.055a9.996 9.996 0 007.07-2.926c2.21-2.215 58.531-57.965 60.57-60a10.006 10.006 0 002.168-10.898A9.996 9.996 0 00502 77h-52.855l22.925-22.93c3.907-3.902 3.907-10.234 0-14.14-3.902-3.907-10.234-3.907-14.14 0L435 62.855V10a10.002 10.002 0 00-17.074-7.07c-13.668 13.683-57.047 57.62-59.996 60.57a9.982 9.982 0 00-2.93 7.125c.086 15.316.059 43.281.031 60.781-9.148-1.281-18.472 1.606-25.32 8.453l-28.262 28.258C269.207 144.773 229.98 132 190 132 85.234 132 0 217.234 0 322s85.234 190 190 190zM429.145 96.992h48.554c-15.515 15.363-34.804 34.582-40.367 40.098-13.812-.05-34.328-.04-48.144-.024zM415 34.262v48.593l-40.086 39.957c.016-15.414.027-34.898-.027-48.144 8.472-8.555 23.738-23.879 40.113-40.406zM343.852 154c3.941-3.938 10.21-3.79 14.074.07.004 0 .004 0 .004.004 3.898 3.903 3.918 10.227.039 14.106-.137.14-162.824 162.816-162.883 162.875a9.979 9.979 0 01-14.14-.008 9.976 9.976 0 01.003-14.133c2.969-2.969 159.36-159.367 162.903-162.914zM166.805 345.188c11.742 11.753 30.738 11.707 42.394.039a440481.7 440481.7 0 0146.633-46.63c8.95 25.09 2.945 53.614-16.441 73-13.2 13.2-30.774 20.466-49.496 20.466-18.72 0-36.297-7.266-49.493-20.465-27.308-27.305-27.308-71.68 0-98.989 19.387-19.382 47.91-25.39 73-16.437-26.726 26.73-46.59 46.594-46.59 46.594-11.75 11.734-11.726 30.718-.007 42.421zM190 152c35.25 0 68.598 10.492 97.125 30.45-7.078 7.081-14.387 14.39-21.742 21.75-20.977-13.497-45.172-21.06-70.52-21.934-29.105-1-57.496 6.964-82.105 23.043-4.621 3.023-5.922 9.218-2.899 13.84a9.994 9.994 0 0013.84 2.902c38.676-25.27 88.367-26.196 127.14-3.32-7.53 7.535-14.976 14.984-22.151 22.152-34.145-16.32-75.266-9.578-102.43 17.586-35.121 35.12-35.125 92.148 0 127.273 16.976 16.973 39.574 26.32 63.637 26.32s46.664-9.347 63.636-26.32c27.164-27.164 33.91-68.285 17.586-102.43 7.184-7.187 14.645-14.652 22.192-22.195 27.457 46.156 20.332 106.961-18.547 145.84-23.399 23.39-54.121 35.086-84.856 35.082-30.73 0-61.469-11.695-84.863-35.082-34.516-34.516-43.477-84.3-27.465-127.074.027-.07.055-.145.078-.215.04-.113.074-.219.121-.332a10.002 10.002 0 00-5.675-12.953c-5.149-2.008-10.946.531-12.954 5.676-.12.312-.23.609-.34.914-18.796 50.332-7.828 108.207 32.09 148.129 27.297 27.289 63.153 40.93 99.004 40.93 35.856 0 71.707-13.645 99-40.93 46.567-46.567 54.059-120.13 18.93-174.504 7.352-7.356 14.652-14.66 21.719-21.723C406.828 335.344 328.637 492 190 492c-93.738 0-170-76.262-170-170s76.262-170 170-170zm0 0"/></svg>