<svg xmlns="http://www.w3.org/2000/svg" viewBox="0 0 512 512"><path d="M432 100c-5.52 0-10 4.48-10 10s4.48 10 10 10 10-4.48 10-10-4.48-10-10-10zm-352 0c-5.52 0-10 4.48-10 10s4.48 10 10 10 10-4.48 10-10-4.48-10-10-10zm422 120h-11.96c-3.738-28.804-12.77-56.253-26.944-81.705-2.687-4.824-8.776-6.559-13.602-3.872-4.825 2.687-6.559 8.777-3.872 13.602 12.508 22.463 20.646 46.628 24.252 71.975H462c-5.523 0-10 4.477-10 10v40c0 5.523 4.477 10 10 10h40c5.523 0 10-4.477 10-10v-40c0-5.523-4.477-10-10-10zm-10 40h-20v-20h20v20zm-126.019 32.621c-.006-.155-.01-.31-.023-.465a10 10 0 00-.078-.629c-.019-.128-.034-.256-.059-.384a10.286 10.286 0 00-.169-.724c-.024-.091-.043-.182-.07-.272a9.83 9.83 0 00-.309-.879c-.013-.031-.022-.064-.035-.095a9.871 9.871 0 00-.465-.973l-99.998-182.996a10 10 0 00-17.55.001l-99.998 182.996a9.871 9.871 0 00-.465.973c-.013.031-.022.063-.035.095a9.83 9.83 0 00-.309.879c-.027.09-.046.181-.07.272a9.64 9.64 0 00-.169.724c-.024.127-.039.255-.059.384a10 10 0 00-.078.629c-.013.155-.018.31-.023.465-.005.126-.019.25-.019.378 0 .066.009.129.01.195.003.157.013.313.024.47.013.199.029.397.054.593a11.771 11.771 0 00.192 1.054 10.123 10.123 0 00.305 1.029c.022.063.036.127.06.19l36.064 95.569a30.095 30.095 0 00-7.92 5.689C169.121 403.457 166 410.99 166 419c0 13.036 8.361 24.152 20 28.28V502c0 5.523 4.477 10 10 10h120c5.523 0 10-4.477 10-10v-54.703a29.905 29.905 0 0011.212-7.086C342.879 434.543 346 427.01 346 419c0-11.773-6.819-21.978-16.713-26.887l36.069-95.582c.024-.063.038-.127.06-.19a10.123 10.123 0 00.305-1.029c.05-.211.092-.425.129-.641.023-.138.046-.275.063-.413.025-.196.041-.394.054-.593.01-.157.021-.313.024-.47.001-.065.01-.129.01-.195-.001-.128-.015-.252-.02-.379zM256 283c5.514 0 10 4.486 10 10s-4.486 10-10 10-10-4.486-10-10 4.486-10 10-10zm50 209H206v-43h100v43zm17.069-65.932A9.93 9.93 0 01316 429H196c-5.514 0-10-4.486-10-10a9.93 9.93 0 012.931-7.068A9.933 9.933 0 01196 409h119.933l.066.003.034-.001c5.499.018 9.968 4.495 9.968 9.998a9.935 9.935 0 01-2.932 7.068zM309.085 389h-106.17l-32.453-86H196c5.523 0 10-4.477 10-10s-4.477-10-10-10h-23.14L246 149.154V264.72c-11.639 4.128-20 15.243-20 28.28 0 16.542 13.458 30 30 30s30-13.458 30-30c0-13.036-8.361-24.152-20-28.28V149.154L339.14 283H316c-5.523 0-10 4.477-10 10s4.477 10 10 10h25.538l-32.453 86zM62.505 134.423c-4.826-2.688-10.916-.954-13.602 3.872C34.73 163.747 25.697 191.196 21.96 220H10c-5.523 0-10 4.477-10 10v40c0 5.523 4.477 10 10 10h40c5.523 0 10-4.477 10-10v-40c0-5.523-4.477-10-10-10h-7.875c3.607-25.347 11.744-49.512 24.252-71.975 2.687-4.825.954-10.915-3.872-13.602zM40 260H20v-20h20v20zM482 0c-13.036 0-24.152 8.361-28.28 20H286V10c0-5.523-4.477-10-10-10h-40c-5.523 0-10 4.477-10 10v10H58.28C54.152 8.361 43.036 0 30 0 13.458 0 0 13.458 0 30s13.458 30 30 30c13.036 0 24.152-8.361 28.28-20h100.534c-21.329 8.925-40.889 20.511-56.989 34.084-4.223 3.56-4.76 9.869-1.2 14.091a9.977 9.977 0 007.65 3.555 9.956 9.956 0 006.44-2.354C143.407 65.188 184.353 47.913 226 42.119V50c0 5.523 4.477 10 10 10h40c5.523 0 10-4.477 10-10v-7.881c41.647 5.794 82.593 23.069 111.285 47.256a9.95 9.95 0 006.44 2.354 9.973 9.973 0 007.65-3.555c3.561-4.221 3.023-10.53-1.2-14.09-16.1-13.573-35.66-25.159-56.989-34.084H453.72c4.128 11.639 15.243 20 28.28 20 16.542 0 30-13.458 30-30S498.542 0 482 0zM30 40c-5.514 0-10-4.486-10-10s4.486-10 10-10 10 4.486 10 10-4.486 10-10 10zm236-10v10h-20V20h20v10zm216 10c-5.514 0-10-4.486-10-10s4.486-10 10-10 10 4.486 10 10-4.486 10-10 10z"/></svg>