<svg viewBox="-46 1 511 511.999" xmlns="http://www.w3.org/2000/svg"><path d="m210.492188 266c5.519531 0 10-4.480469 10-10s-4.480469-10-10-10c-5.519532 0-10 4.480469-10 10s4.480468 10 10 10zm0 0"/><path d="m220.492188 76v-66c0-5.523438-4.476563-10-10-10-5.523438 0-10 4.476562-10 10v66c0 5.523438 4.476562 10 10 10 5.523437 0 10-4.476562 10-10zm0 0"/><path d="m90.492188 118.148438c4.785156-2.757813 6.421874-8.875 3.660156-13.660157l-30-51.957031c-2.761719-4.785156-8.875-6.421875-13.660156-3.660156-4.78125 2.761718-6.421876 8.875-3.660157 13.660156l30 51.957031c2.773438 4.808594 8.902344 6.410157 13.660157 3.660157zm0 0"/><path d="m344.152344 114.488281 30-51.957031c2.761718-4.785156 1.125-10.898438-3.660156-13.660156-4.785157-2.761719-10.898438-1.125-13.660157 3.660156l-30 51.957031c-2.761719 4.785157-1.121093 10.902344 3.660157 13.660157 4.765624 2.753906 10.890624 1.140624 13.660156-3.660157zm0 0"/><path d="m2.734375 262.308594.035156.042968c.003907.003907.007813.011719.011719.015626l199.953125 245.941406c.023437.03125.054687.054687.078125.085937 1.957031 2.347657 4.84375 3.605469 7.679688 3.605469 2.980468 0 5.878906-1.378906 7.757812-3.691406l199.953125-245.941406c.003906-.007813.007813-.011719.011719-.015626l.035156-.042968c2.417969-2.972656 2.257812-6.410156 2.242188-6.308594 0-2.285156-.832032-4.542969-2.191407-6.246094l-80-100c-1.933593-2.417968-4.894531-3.753906-7.808593-3.753906h-240c-.035157 0-.070313.007812-.105469.007812-2.976563.03125-5.84375 1.417969-7.707031 3.746094l-80 100c-2.976563 3.730469-2.851563 8.980469.054687 12.554688zm28.777344 3.691406h86.546875l64.386718 185.648438zm207.027343 185.648438 64.386719-185.648438h86.550781zm95.464844-275.253907 55.683594 69.605469h-79.824219zm-17.5625-10.394531-24.511718 70.667969-59.859376-70.667969zm-42.816406 80h-23.132812c-5.523438 0-10 4.476562-10 10s4.476562 10 10 10h31.265624l-71.265624 205.480469-71.265626-205.480469h31.265626c5.523437 0 10-4.476562 10-10s-4.476563-10-10-10h-23.132813l63.132813-74.527344zm-84.707031-80-59.863281 70.667969-24.507813-70.667969zm-101.9375 10.394531 24.140625 69.605469h-79.824219zm0 0"/></svg>