<svg viewBox="-26 0 512 512" xmlns="http://www.w3.org/2000/svg"><path d="m140 206c-5.519531 0-10 4.480469-10 10s4.480469 10 10 10 10-4.480469 10-10-4.480469-10-10-10zm0 0"/><path d="m162.046875 183.65625c14.6875-23.578125 40.09375-37.65625 67.953125-37.65625 5.523438 0 10-4.476562 10-10s-4.476562-10-10-10c-34.8125 0-66.5625 17.601562-84.929688 47.082031-2.917968 4.6875-1.484374 10.855469 3.203126 13.777344 4.707031 2.929687 10.863281 1.46875 13.773437-3.203125zm0 0"/><path d="m160 462c0 27.570312 22.429688 50 50 50h40c27.570312 0 50-22.429688 50-50 0-8.457031 0-27.851562 0-36.238281 0-31.039063 12.6875-60.738281 35.726562-83.625 28.550782-28.351563 44.273438-66.042969 44.273438-106.136719 0-83.53125-68.5-151.40625-152.621094-149.980469-78.332031 1.34375-144.398437 66.109375-147.273437 144.371094-1.527344 41.460937 13.65625 80.644531 42.753906 110.332031 23.953125 24.417969 37.140625 54.660156 37.140625 85.148438zm120 0c0 16.542969-13.457031 30-30 30h-40c-16.542969 0-30-13.457031-30-30v-16h100zm-60-36v-140h20v140zm-82.859375-99.28125c-25.214844-25.722656-38.371094-59.671875-37.046875-95.589844 2.492188-67.824218 59.746094-123.949218 127.628906-125.109375 72.582032-1.246093 132.277344 57.296875 132.277344 129.980469 0 34.726562-13.625 67.378906-38.367188 91.945312-26.847656 26.671876-41.632812 61.410157-41.632812 97.816407v.238281h-20v-140h10c16.542969 0 30-13.457031 30-30s-13.457031-30-30-30-30 13.457031-30 30c0 3.507812.609375 6.871094 1.71875 10h-23.4375c1.109375-3.128906 1.71875-6.492188 1.71875-10 0-16.542969-13.457031-30-30-30s-30 13.457031-30 30 13.457031 30 30 30h10v140h-20v-.128906c0-35.757813-15.222656-70.972656-42.859375-99.152344zm122.859375-70.71875c0-5.515625 4.484375-10 10-10s10 4.484375 10 10-4.484375 10-10 10-10-4.484375-10-10zm-60 0c0 5.515625-4.484375 10-10 10s-10-4.484375-10-10 4.484375-10 10-10 10 4.484375 10 10zm0 0"/><path d="m240 56v-46c0-5.523438-4.476562-10-10-10s-10 4.476562-10 10v46c0 5.523438 4.476562 10 10 10s10-4.476562 10-10zm0 0"/><path d="m391.210938 64.789062c-3.90625-3.90625-10.234376-3.90625-14.144532 0l-28.277344 28.28125c-3.90625 3.902344-3.90625 10.234376 0 14.140626s10.234376 3.90625 14.144532 0l28.277344-28.28125c3.90625-3.90625 3.90625-10.234376 0-14.140626zm0 0"/><path d="m111.210938 107.210938c3.90625-3.90625 3.90625-10.238282 0-14.140626l-28.277344-28.28125c-3.90625-3.90625-10.238282-3.90625-14.144532 0s-3.90625 10.238282 0 14.140626l28.277344 28.28125c3.90625 3.90625 10.238282 3.90625 14.144532 0zm0 0"/><path d="m410 206c-5.523438 0-10 4.476562-10 10s4.476562 10 10 10h40c5.523438 0 10-4.476562 10-10s-4.476562-10-10-10zm0 0"/><path d="m10 206c-5.523438 0-10 4.476562-10 10s4.476562 10 10 10h40c5.523438 0 10-4.476562 10-10s-4.476562-10-10-10zm0 0"/></svg>