<?xml version="1.0" encoding="iso-8859-1"?>
<!-- Generator: Adobe Illustrator 19.0.0, SVG Export Plug-In . SVG Version: 6.00 Build 0)  -->
<svg version="1.1" id="Capa_1" xmlns="http://www.w3.org/2000/svg" xmlns:xlink="http://www.w3.org/1999/xlink" x="0px" y="0px"
	 viewBox="0 0 512 512" style="enable-background:new 0 0 512 512;" xml:space="preserve">
<g>
	<g>
		<path d="M336,166c-5.52,0-10,4.48-10,10s4.48,10,10,10c5.52,0,10-4.48,10-10S341.52,166,336,166z"/>
	</g>
</g>
<g>
	<g>
		<path d="M462.638,206.74L426,130.716V73c0-13.036-8.361-24.152-20-28.28V30c0-16.542-13.458-30-30-30h-40
			c-16.542,0-30,13.458-30,30v14.72c-8.509,3.018-15.262,9.771-18.28,18.28h-71.74c-9.376-12.457-24.2-20-39.98-20
			c-27.57,0-50,22.43-50,50c0,5.233,0.804,10.328,2.369,15.213l-53.659,77.82C47.735,186.721,26,208.862,26,236
			c0,27.539,22.38,49.947,49.907,49.998l66.682,91.496c-5.885,3.205-11.326,7.249-16.093,12.008
			c-11.046,11.056-17.925,25.154-19.894,40.396C83.511,434.309,66,454.643,66,479v23c0,5.522,4.478,10,10,10h320
			c5.522,0,10-4.478,10-10v-23c0-24.146-17.205-44.348-40-48.994V399c0-5.522-4.478-10-10-10h-40c-5.522,0-10,4.478-10,10v30
			h-20.726c-4.869-33.876-34.073-60-69.274-60h-4.928l-87.096-118.932C125.312,245.518,126,240.81,126,236
			c0-5.231-0.803-10.324-2.37-15.212l53.667-77.831c15.289-0.401,29.56-7.84,38.682-19.957H286v7.716l-36.638,76.024
			C236.004,209.77,226,221.738,226,236c0,16.542,13.458,30,30,30h51.006c4.646,22.795,24.847,40,48.994,40s44.348-17.205,48.994-40
			H456c16.542,0,30-13.458,30-30C486,221.738,475.996,209.77,462.638,206.74z M79.586,265.782C78.397,265.927,77.19,266,76,266
			c-16.542,0-30-13.458-30-30s13.458-30,30-30c0.994,0,1.948,0.046,2.914,0.146c10.609,1.009,19.958,7.688,24.396,17.43l0.006,0.013
			c1.781,3.894,2.684,8.07,2.684,12.411c0,4.088-0.81,8.055-2.404,11.787C99.389,257.623,90.197,264.517,79.586,265.782z M326,409
			h20v20h-20V409z M276,449h40h40c16.542,0,30,13.458,30,30v13H86v-13c0-16.542,13.458-30,30-30H276z M216.001,389
			c24.145,0,44.349,17.206,48.994,40H126.994c1.927-9.541,6.607-18.313,13.643-25.354c5.709-5.701,12.765-9.979,20.394-12.37
			c4.837-1.511,9.873-2.276,14.97-2.276H216.001z M186.282,369H176c-4.668,0-9.3,0.469-13.847,1.383L97.201,281.26
			c6.099-2.865,11.575-6.931,16.073-11.954L186.282,369z M112.442,201.781c-4.616-4.91-10.184-8.837-16.335-11.548l43.451-63.016
			c4.616,4.911,10.184,8.837,16.335,11.548L112.442,201.781z M201.995,107.992C196.639,117.249,186.678,123,176,123
			c-0.994,0-1.948-0.046-2.914-0.146c-10.609-1.009-19.958-7.688-24.401-17.442C146.903,101.517,146,97.341,146,93
			c0-16.542,13.458-30,30-30c10.675,0,20.632,5.747,25.989,14.999C204.613,82.545,206,87.731,206,93
			S204.613,103.455,201.995,107.992z M326,30c0-5.514,4.486-10,10-10h40c5.514,0,10,4.486,10,10v13h-60V30z M224.983,103
			c0.668-3.28,1.017-6.629,1.017-10c0-3.371-0.348-6.72-1.017-10H286v20H224.983z M356,286c-13.036,0-24.152-8.361-28.28-20h56.56
			C380.152,277.639,369.036,286,356,286z M456,246H256c-5.514,0-10-4.486-10-10c0-5.514,4.486-10,10-10
			c3.84,0,7.341-2.199,9.009-5.658l40-83c0.652-1.354,0.991-2.839,0.991-4.342V73c0-5.514,4.486-10,10-10h80c5.514,0,10,4.486,10,10
			v60c0,1.503,0.339,2.987,0.991,4.342L420.802,166H376c-5.522,0-10,4.478-10,10c0,5.522,4.478,10,10,10h54.441l16.55,34.342
			C448.659,223.801,452.16,226,456,226c5.514,0,10,4.486,10,10C466,241.514,461.514,246,456,246z"/>
	</g>
</g>
<g>
</g>
<g>
</g>
<g>
</g>
<g>
</g>
<g>
</g>
<g>
</g>
<g>
</g>
<g>
</g>
<g>
</g>
<g>
</g>
<g>
</g>
<g>
</g>
<g>
</g>
<g>
</g>
<g>
</g>
</svg>
