<svg viewBox="-65 0 511 511.99932" xmlns="http://www.w3.org/2000/svg"><path d="m110.503906 109.882812c5.523438 0 10-4.480468 10-10 0-5.53125-4.476562-10-10-10-5.519531 0-9.996094 4.46875-9.996094 10 0 5.519532 4.476563 10 9.996094 10zm0 0"/><path d="m376.464844 181.4375c7.320312-12.832031 4.480468-29.074219-6.753906-38.628906l-33.867188-28.757813c-1.875-1.59375-3.148438-3.835937-3.585938-6.308593l-7.667968-43.453126c-2.5625-14.648437-15.125-25.273437-29.871094-25.273437h-44.207031c-2.398438 0-4.742188-.867187-6.519531-2.375l-33.867188-29.371094c-.027344-.023437-.058594-.046875-.085938-.074219-11.320312-9.59375-27.753906-9.59375-39.070312 0-.03125.027344-.058594.050782-.085938.074219l-33.792968 29.304688c-1.851563 1.574219-4.191406 2.441406-6.585938 2.441406h-44.21875c-14.742187 0-27.304687 10.628906-29.867187 25.257813l-7.683594 43.492187c-.429687 2.460937-1.695313 4.691406-3.570313 6.28125l-33.875 28.765625c-11.2304682 9.550781-14.066406 25.792969-6.746093 38.621094l22.109375 38.761718c1.238281 2.171876 1.683594 4.722657 1.253906 7.1875l-7.679688 44.070313c-2.542968 14.621094 5.644532 28.925781 19.460938 34.007813l41.546875 15.3125c.828125.304687 1.609375.714843 2.324219 1.21875l-77.015625 135.054687c-4.390625 7.699219 2.707031 16.90625 11.273437 14.613281l44.980469-12.050781 12.050781 44.976563c2.300782 8.589843 13.902344 10.15625 18.34375 2.367187l79.480469-139.363281 14.332031-5.28125c2.253906-.832032 4.742188-.828125 6.992188-.003906l15.414062 5.679687 85.28125 139.238281c4.578125 7.46875 15.914063 5.859375 18.1875-2.636718l12.054688-44.976563 44.976562 12.050781c8.6875 2.335938 15.832032-7.183594 11.117188-14.882812l-82.855469-135.25c.511719-.300782 1.046875-.554688 1.605469-.757813l41.53125-15.308593c13.84375-5.085938 22.03125-19.394532 19.472656-34.011719l-7.679688-44.070313c-.429687-2.460937.015626-5.015625 1.253907-7.1875zm-288.59375 294.480469-8.34375-31.144531c-1.429688-5.335938-6.914063-8.5-12.25-7.070313l-31.492188 8.4375 59.863282-104.984375 13.109374 22.976562c7.035157 12.347657 21.429688 18.066407 34.820313 14.101563zm263.011718-30.058594-30.433593-8.15625c-5.339844-1.429687-10.820313 1.738281-12.25 7.070313l-8.613281 32.152343-60.121094-98.15625c2.171875.480469 4.355468.71875 6.523437.71875 10.59375-.003906 20.714844-5.621093 26.257813-15.351562l13.777344-24.152344zm-13.898437-235.574219c-3.539063 6.203125-4.8125 13.496094-3.585937 20.53125l7.679687 44.074219c.894531 5.089844-1.914063 10.054687-6.675781 11.804687l-41.53125 15.304688c-6.222656 2.289062-11.519532 6.609375-15.089844 12.214844-.410156.53125-.757812 1.101562-1.046875 1.699218l-21.859375 38.320313c-2.507812 4.398437-7.730469 6.335937-12.414062 4.617187-1.3125-.484374-40.496094-14.921874-41.558594-15.3125-6.703125-2.460937-14.089844-2.464843-20.804688.003907-.804687.289062-18.527344 6.824219-41.542968 15.308593-4.691407 1.726563-9.914063-.21875-12.421876-4.621093l-20.570312-36.054688c-.472656-1.882812-1.484375-3.628906-2.976562-4.984375-3.550782-5.113281-8.597657-9.039062-14.441407-11.1875l-41.542969-15.3125c-4.75-1.746094-7.558593-6.714844-6.671874-11.808594l7.679687-44.066406c1.230469-7.035156-.042969-14.328125-3.582031-20.53125l-22.109375-38.761718c-2.5625-4.480469-1.578125-10.148438 2.324219-13.46875l33.871093-28.761719c5.429688-4.613281 9.097657-11.039063 10.324219-18.070313l7.679688-43.484375c.886718-5.054687 5.164062-8.726562 10.171874-8.726562h44.21875c7.132813 0 14.070313-2.554688 19.609376-7.265625l33.820312-29.324219c3.8125-3.203125 9.324219-3.203125 13.136719 0l33.894531 29.390625c5.460938 4.644531 12.402344 7.199219 19.542969 7.199219h44.210937c5.007813 0 9.285156 3.671875 10.171875 8.738281l7.671875 43.46875c1.242188 7.050781 4.910156 13.46875 10.332032 18.074219l33.863281 28.753906c3.910156 3.324219 4.890625 8.992187 2.332031 13.476563zm0 0"/><path d="m190.503906 59.746094c-17.214844 0-33.949218 3.316406-49.738281 9.859375-5.101563 2.113281-7.523437 7.964843-5.410156 13.066406 2.117187 5.101563 7.96875 7.519531 13.066406 5.410156 13.347656-5.535156 27.507813-8.339843 42.082031-8.339843 60.652344 0 109.996094 49.34375 109.996094 109.996093 0 60.652344-49.34375 109.996094-109.996094 109.996094s-109.996094-49.34375-109.996094-109.996094c0-18.8125 4.832032-37.382812 13.972657-53.699219 2.699219-4.816406.980469-10.914062-3.835938-13.613281-4.820312-2.699219-10.914062-.980469-13.613281 3.835938-10.808594 19.296875-16.523438 41.246093-16.523438 63.480469 0 71.679687 58.316407 129.996093 129.996094 129.996093 71.679688 0 129.996094-58.316406 129.996094-129.996093 0-71.683594-58.316406-129.996094-129.996094-129.996094zm0 0"/><path d="m151.230469 202.640625-5.851563 34.085937c-.644531 3.75.898438 7.542969 3.980469 9.78125 3.042969 2.214844 7.121094 2.550782 10.527344.761719l30.617187-16.09375 30.617188 16.09375c3.367187 1.769531 7.449218 1.476563 10.53125-.761719 3.078125-2.238281 4.621094-6.027343 3.976562-9.78125l-5.851562-34.085937 24.765625-24.140625c2.726562-2.65625 3.707031-6.628906 2.53125-10.25-1.179688-3.621094-4.308594-6.257812-8.074219-6.808594l-34.226562-4.972656-15.300782-31.011719c-1.6875-3.414062-5.164062-5.578125-8.96875-5.578125-3.808594 0-7.285156 2.164063-8.96875 5.578125l-15.300781 31.011719-34.226563 4.972656c-3.769531.550782-6.898437 3.1875-8.074218 6.808594-1.175782 3.621094-.195313 7.59375 2.53125 10.25zm23.082031-27.136719c3.257812-.472656 6.074219-2.519531 7.53125-5.46875l8.660156-17.554687 8.664063 17.554687c1.453125 2.949219 4.269531 4.996094 7.527343 5.46875l19.378907 2.816406-14.023438 13.667969c-2.355469 2.296875-3.429687 5.605469-2.875 8.851563l3.3125 19.296875-17.332031-9.109375c-1.457031-.765625-3.054688-1.148438-4.652344-1.148438s-3.195312.382813-4.652344 1.148438l-17.332031 9.109375 3.3125-19.296875c.558594-3.242188-.519531-6.554688-2.875-8.851563l-14.023437-13.667969zm0 0"/></svg>